<?xml version="1.0" encoding="UTF-8"?>
<svg xmlns="http://www.w3.org/2000/svg" xmlns:xlink="http://www.w3.org/1999/xlink" width="40px" height="40px" viewBox="0 0 40 40" version="1.1">
<g id="surface1">
<path style=" stroke:none;fill-rule:nonzero;fill:rgb(22.352941%,52.941176%,94.117647%);fill-opacity:1;" d="M 14.492188 28.835938 C 22.453125 28.835938 28.902344 22.382812 28.902344 14.425781 C 28.902344 6.464844 22.453125 0.0117188 14.492188 0.0117188 C 6.53125 0.0117188 0.078125 6.464844 0.078125 14.425781 C 0.078125 22.382812 6.53125 28.835938 14.492188 28.835938 Z M 14.492188 28.835938 "/>
<path style=" stroke:none;fill-rule:nonzero;fill:rgb(100%,100%,100%);fill-opacity:1;" d="M 22.855469 10.816406 L 22.203125 11.1875 L 22.210938 11.199219 Z M 21.289062 9.886719 L 21.300781 9.136719 L 21.289062 9.136719 Z M 9.515625 9.886719 L 8.789062 10.070312 C 8.875 10.40625 9.171875 10.636719 9.515625 10.636719 Z M 8.984375 7.789062 L 9.710938 7.601562 L 9.707031 7.59375 Z M 8.0625 7.101562 L 8.0625 7.851562 L 8.089844 7.851562 Z M 6.222656 7.101562 L 6.222656 6.351562 Z M 5.304688 8.03125 L 4.554688 8.03125 Z M 7.363281 8.957031 L 8.089844 8.765625 C 8 8.4375 7.703125 8.207031 7.363281 8.207031 Z M 9.902344 18.488281 L 10.628906 18.292969 Z M 10.824219 19.175781 L 10.824219 18.425781 L 10.796875 18.425781 Z M 19.101562 19.175781 L 19.101562 19.925781 L 19.105469 19.925781 Z M 19.921875 18.664062 L 20.589844 19 L 20.59375 18.996094 Z M 22.9375 12.570312 L 23.609375 12.902344 L 23.613281 12.890625 Z M 23.503906 10.445312 C 23.28125 10.054688 22.960938 9.726562 22.578125 9.5 L 21.8125 10.789062 C 21.972656 10.882812 22.109375 11.023438 22.203125 11.1875 Z M 22.578125 9.5 C 22.191406 9.269531 21.75 9.144531 21.300781 9.136719 L 21.277344 10.636719 C 21.464844 10.640625 21.648438 10.691406 21.8125 10.789062 Z M 21.289062 9.136719 L 9.515625 9.136719 L 9.515625 10.636719 L 21.289062 10.636719 Z M 10.242188 9.703125 L 9.710938 7.601562 L 8.257812 7.972656 L 8.789062 10.070312 Z M 9.707031 7.59375 C 9.609375 7.230469 9.394531 6.90625 9.089844 6.683594 L 8.191406 7.882812 C 8.226562 7.90625 8.246094 7.941406 8.257812 7.980469 Z M 9.089844 6.683594 C 8.789062 6.457031 8.414062 6.339844 8.035156 6.351562 L 8.089844 7.851562 C 8.125 7.847656 8.160156 7.859375 8.191406 7.882812 Z M 8.0625 6.351562 L 6.222656 6.351562 L 6.222656 7.851562 L 8.0625 7.851562 Z M 6.222656 6.351562 C 5.777344 6.351562 5.351562 6.53125 5.039062 6.84375 L 6.105469 7.902344 C 6.136719 7.867188 6.179688 7.851562 6.222656 7.851562 Z M 5.039062 6.84375 C 4.726562 7.160156 4.554688 7.585938 4.554688 8.03125 L 6.054688 8.03125 C 6.054688 7.980469 6.074219 7.933594 6.105469 7.902344 Z M 4.554688 8.03125 C 4.554688 8.472656 4.726562 8.898438 5.039062 9.214844 L 6.105469 8.160156 C 6.074219 8.125 6.054688 8.078125 6.054688 8.03125 Z M 5.039062 9.214844 C 5.351562 9.53125 5.777344 9.707031 6.222656 9.707031 L 6.222656 8.207031 C 6.179688 8.207031 6.136719 8.191406 6.105469 8.160156 Z M 6.222656 9.707031 L 7.363281 9.707031 L 7.363281 8.207031 L 6.222656 8.207031 Z M 6.640625 9.152344 L 9.179688 18.679688 L 10.628906 18.292969 L 8.089844 8.765625 Z M 9.179688 18.679688 C 9.273438 19.046875 9.492188 19.367188 9.796875 19.59375 L 10.691406 18.390625 C 10.660156 18.367188 10.636719 18.335938 10.628906 18.292969 Z M 9.796875 19.59375 C 10.097656 19.820312 10.46875 19.9375 10.847656 19.925781 L 10.796875 18.425781 C 10.761719 18.425781 10.722656 18.414062 10.691406 18.390625 Z M 10.824219 19.925781 L 19.101562 19.925781 L 19.101562 18.425781 L 10.824219 18.425781 Z M 19.101562 19.925781 C 19.414062 19.921875 19.714844 19.835938 19.980469 19.671875 L 19.183594 18.398438 C 19.160156 18.414062 19.128906 18.425781 19.097656 18.425781 Z M 19.980469 19.671875 C 20.242188 19.507812 20.453125 19.273438 20.589844 19 L 19.25 18.328125 C 19.234375 18.359375 19.210938 18.382812 19.183594 18.398438 Z M 20.59375 18.996094 L 23.609375 12.902344 L 22.265625 12.238281 L 19.246094 18.332031 Z M 23.613281 12.890625 C 23.796875 12.503906 23.882812 12.078125 23.863281 11.648438 L 22.363281 11.71875 C 22.375 11.902344 22.335938 12.085938 22.257812 12.25 Z M 23.863281 11.648438 C 23.84375 11.21875 23.71875 10.800781 23.5 10.433594 L 22.210938 11.199219 C 22.304688 11.355469 22.355469 11.535156 22.363281 11.71875 Z M 23.863281 11.648438 "/>
<path style="fill-rule:nonzero;fill:rgb(100%,100%,100%);fill-opacity:1;stroke-width:15;stroke-linecap:butt;stroke-linejoin:miter;stroke:rgb(100%,100%,100%);stroke-opacity:1;stroke-miterlimit:4;" d="M 125.78125 224.257812 C 125.78125 227.851562 122.890625 230.664062 119.492188 230.664062 C 116.054688 230.664062 113.164062 227.851562 113.164062 224.257812 C 113.164062 220.625 116.054688 217.8125 119.492188 217.8125 C 122.890625 217.8125 125.78125 220.625 125.78125 224.257812 Z M 185.625 224.257812 C 185.625 227.851562 182.734375 230.664062 179.296875 230.664062 C 175.898438 230.664062 173.007812 227.851562 173.007812 224.257812 C 173.007812 220.625 175.898438 217.8125 179.296875 217.8125 C 182.734375 217.8125 185.625 220.625 185.625 224.257812 Z M 185.625 224.257812 " transform="matrix(0.1,0,0,0.1,0,0)"/>
<path style="fill-rule:nonzero;fill:rgb(100%,100%,100%);fill-opacity:1;stroke-width:4.889;stroke-linecap:butt;stroke-linejoin:round;stroke:rgb(100%,100%,100%);stroke-opacity:1;stroke-miterlimit:4;" d="M 133.789062 142.226562 L 165.039062 115.664062 L 152.8125 140.625 L 166.640625 146.132812 L 135.429688 172.695312 L 147.65625 147.773438 Z M 133.789062 142.226562 " transform="matrix(0.1,0,0,0.1,0,0)"/>
</g>
</svg>
